<svg width="24" height="24" viewBox="0 0 24 24" fill="none" xmlns="http://www.w3.org/2000/svg">
<rect width="24" height="24" rx="4" fill="url(#paint0_linear_597_230)"/>
<path d="M13.402 20.6545C12.9171 20.6327 12.4517 20.5561 12.0058 20.425C11.5676 20.3034 11.1784 20.1193 10.8384 19.8726C10.5077 19.6263 10.2643 19.3146 10.1082 18.9373C9.95036 18.5692 9.91964 18.1236 10.016 17.6004C10.0566 17.3801 10.1569 17.1163 10.317 16.8088C10.4863 16.5018 10.707 16.197 10.9789 15.8946C11.2602 15.5926 11.5953 15.3301 11.9842 15.107C12.3732 14.8839 12.8185 14.7373 13.3203 14.6674C13.35 14.6595 13.3881 14.6566 13.4347 14.6587C13.5373 14.6633 13.6076 14.6896 13.6458 14.7376C13.684 14.7856 13.6971 14.8417 13.6853 14.906C13.6582 15.0528 13.5473 15.145 13.3523 15.1825C12.9455 15.2475 12.5735 15.3788 12.2362 15.5764C11.91 15.7653 11.6244 15.9885 11.3796 16.2458C11.1458 16.4945 10.9539 16.7449 10.804 16.9973C10.6651 17.241 10.5796 17.45 10.5475 17.6244C10.4494 18.1567 10.5221 18.6043 10.7655 18.9669C11.009 19.3296 11.3719 19.6051 11.8542 19.7934C12.3349 19.9909 12.883 20.1036 13.4983 20.1313C14.1137 20.159 14.7138 20.1167 15.2986 20.0042C15.8834 19.8917 16.4139 19.7167 16.8901 19.479C17.3757 19.2417 17.7765 18.9544 18.0925 18.6169C18.4085 18.2795 18.6054 17.8996 18.6832 17.4774C18.7542 17.0919 18.6968 16.7654 18.5111 16.4979C18.3363 16.2216 18.0764 15.9739 17.7313 15.7547C17.3956 15.536 17.0225 15.3155 16.6122 15.0934C15.9704 14.7498 15.5316 14.4015 15.2958 14.0484C15.0693 13.6958 14.9856 13.3588 15.0448 13.0376C15.1158 12.652 15.3411 12.2966 15.7207 11.9713C16.1003 11.646 16.5752 11.3897 17.1456 11.2026C17.7253 11.0158 18.3368 10.9369 18.9801 10.9659C19.8659 11.0059 20.4771 11.1584 20.8137 11.4234C21.152 11.6793 21.2916 11.9679 21.2324 12.2891C21.1699 12.6287 20.9178 12.9506 20.4764 13.2546C20.0366 13.5495 19.4921 13.7239 18.8429 13.7779L18.7869 13.7754C18.703 13.7716 18.6382 13.7409 18.5924 13.6833C18.5559 13.6262 18.5436 13.5655 18.5554 13.5012C18.574 13.4002 18.6464 13.3387 18.7727 13.3166C19.2508 13.2734 19.6677 13.1534 20.0236 12.9565C20.3905 12.751 20.5951 12.5334 20.6374 12.304C20.6729 12.1112 20.5597 11.9349 20.2977 11.775C20.0357 11.6151 19.5644 11.5198 18.8837 11.4891C18.287 11.4622 17.7535 11.5261 17.2831 11.6808C16.8128 11.8354 16.4327 12.0358 16.143 12.2819C15.8642 12.5192 15.7012 12.7664 15.6538 13.0234C15.5997 13.3171 15.6558 13.5741 15.822 13.7945C15.9882 14.0148 16.1977 14.2048 16.4504 14.3642C16.7047 14.5145 16.9307 14.6404 17.1282 14.7418C17.5063 14.9347 17.8709 15.1502 18.2219 15.3881C18.5729 15.626 18.8494 15.9115 19.0513 16.2446C19.2532 16.5776 19.3076 16.9965 19.2146 17.5014C19.1132 18.0521 18.8744 18.5318 18.4982 18.9406C18.1238 19.3402 17.6586 19.671 17.1027 19.9328C16.5451 20.2038 15.9451 20.3989 15.3026 20.518C14.6695 20.6376 14.036 20.6831 13.402 20.6545Z" fill="url(#paint1_linear_597_230)"/>
<path d="M4.202 13.882C3.642 13.882 3.236 13.756 2.984 13.504C2.732 13.2613 2.606 12.9907 2.606 12.692C2.606 12.3747 2.72733 12.0853 2.97 11.824C3.222 11.5627 3.56267 11.432 3.992 11.432C4.132 11.432 4.272 11.446 4.412 11.474C4.70133 11.53 4.99067 11.6327 5.28 11.782C5.57867 11.9313 5.85867 12.062 6.12 12.174C6.21333 12.2207 6.31133 12.2673 6.414 12.314C6.51667 12.3607 6.61933 12.4073 6.722 12.454C7.03933 12.174 7.37533 11.8147 7.73 11.376C8.08467 10.928 8.45333 10.438 8.836 9.906C9.21867 9.36467 9.61067 8.81867 10.012 8.268C10.4133 7.708 10.8147 7.176 11.216 6.672C11.6267 6.15867 12.028 5.71533 12.42 5.342C12.1773 5.30467 11.9113 5.27667 11.622 5.258C11.342 5.23933 11.0387 5.23 10.712 5.23C9.732 5.23 8.87333 5.31867 8.136 5.496C7.408 5.67333 6.78733 5.90667 6.274 6.196C5.76067 6.476 5.35467 6.77933 5.056 7.106C4.76667 7.43267 4.57067 7.74533 4.468 8.044C4.39333 8.28667 4.356 8.48733 4.356 8.646C4.356 8.96333 4.454 9.20133 4.65 9.36C4.85533 9.50933 5.11667 9.584 5.434 9.584C5.742 9.584 6.08733 9.49533 6.47 9.318C6.85267 9.14067 7.24467 8.86533 7.646 8.492C8.04733 8.11867 8.416 7.638 8.752 7.05C8.79867 6.966 8.86867 6.924 8.962 6.924C9.02733 6.924 9.088 6.94733 9.144 6.994C9.2 7.03133 9.228 7.08733 9.228 7.162C9.228 7.19933 9.214 7.24133 9.186 7.288C8.81267 7.932 8.402 8.45933 7.954 8.87C7.506 9.28067 7.058 9.584 6.61 9.78C6.162 9.976 5.74667 10.074 5.364 10.074C4.92533 10.074 4.56133 9.95267 4.272 9.71C3.992 9.46733 3.852 9.122 3.852 8.674C3.852 8.422 3.89867 8.16067 3.992 7.89C4.11333 7.51667 4.342 7.14333 4.678 6.77C5.02333 6.39667 5.476 6.056 6.036 5.748C6.596 5.44 7.26333 5.19267 8.038 5.006C8.822 4.81933 9.71333 4.726 10.712 4.726C11.1413 4.726 11.5333 4.74467 11.888 4.782C12.252 4.81933 12.588 4.87067 12.896 4.936C13.148 4.74 13.3953 4.586 13.638 4.474C13.8807 4.362 14.114 4.306 14.338 4.306C14.422 4.306 14.4827 4.334 14.52 4.39C14.5573 4.43667 14.576 4.488 14.576 4.544C14.576 4.60933 14.5573 4.67 14.52 4.726C14.4827 4.77267 14.422 4.796 14.338 4.796C14.114 4.796 13.8387 4.89867 13.512 5.104C14.156 5.31867 14.6227 5.594 14.912 5.93C15.2107 6.266 15.36 6.62067 15.36 6.994C15.36 7.46067 15.1407 7.90867 14.702 8.338C14.2727 8.76733 13.6707 9.08 12.896 9.276C13.344 9.46267 13.6707 9.70533 13.876 10.004C14.0813 10.2933 14.184 10.606 14.184 10.942C14.184 11.2873 14.086 11.6327 13.89 11.978C13.694 12.3233 13.414 12.6407 13.05 12.93C12.6953 13.21 12.2707 13.434 11.776 13.602C11.2813 13.7793 10.7307 13.868 10.124 13.868C9.55467 13.868 8.97133 13.7793 8.374 13.602C8.10333 13.518 7.83733 13.4247 7.576 13.322C7.324 13.2287 7.072 13.1307 6.82 13.028C6.484 13.2707 6.07333 13.4713 5.588 13.63C5.10267 13.798 4.64067 13.882 4.202 13.882ZM8.514 13.14C8.794 13.224 9.06467 13.2847 9.326 13.322C9.59667 13.3593 9.85333 13.378 10.096 13.378C10.8053 13.378 11.426 13.252 11.958 13C12.49 12.7573 12.9053 12.4493 13.204 12.076C13.512 11.7027 13.666 11.334 13.666 10.97C13.666 10.7553 13.6053 10.55 13.484 10.354C13.372 10.158 13.19 9.99 12.938 9.85C12.6393 9.69133 12.2987 9.584 11.916 9.528C11.5333 9.472 11.1787 9.43933 10.852 9.43C10.684 9.41133 10.6 9.33667 10.6 9.206C10.6 9.08467 10.6887 8.996 10.866 8.94C11.0807 8.968 11.2907 8.982 11.496 8.982C12.14 8.982 12.7093 8.884 13.204 8.688C13.708 8.492 14.1047 8.24 14.394 7.932C14.6833 7.61467 14.828 7.29267 14.828 6.966C14.828 6.66733 14.6833 6.38267 14.394 6.112C14.114 5.84133 13.6567 5.62667 13.022 5.468C12.7047 5.72 12.378 6.03267 12.042 6.406C11.706 6.77 11.384 7.176 11.076 7.624C10.8707 7.91333 10.6093 8.282 10.292 8.73C9.984 9.16867 9.648 9.63533 9.284 10.13C8.92933 10.6247 8.57 11.096 8.206 11.544C7.85133 11.992 7.52467 12.3653 7.226 12.664C7.43133 12.7573 7.64133 12.846 7.856 12.93C8.08 13.0047 8.29933 13.0747 8.514 13.14ZM4.09 13.392C4.43533 13.4013 4.80867 13.35 5.21 13.238C5.61133 13.126 5.966 12.9767 6.274 12.79C6.05 12.6873 5.826 12.5847 5.602 12.482C5.378 12.3793 5.154 12.2813 4.93 12.188C4.65 12.0573 4.44 11.978 4.3 11.95C4.25333 11.9407 4.20667 11.936 4.16 11.936C4.11333 11.9267 4.06667 11.922 4.02 11.922C3.74 11.922 3.516 12.0013 3.348 12.16C3.18 12.3187 3.096 12.4913 3.096 12.678C3.096 12.846 3.17533 13 3.334 13.14C3.49267 13.2893 3.74467 13.3733 4.09 13.392Z" fill="#002A46"/>
<defs>
<linearGradient id="paint0_linear_597_230" x1="22.5" y1="22.5" x2="1.5" y2="1.5" gradientUnits="userSpaceOnUse">
<stop stop-color="#C5E1F3"/>
<stop offset="1" stop-color="#5AA6DC"/>
</linearGradient>
<linearGradient id="paint1_linear_597_230" x1="10.0213" y1="8.92157" x2="20.3128" y2="9.87776" gradientUnits="userSpaceOnUse">
<stop stop-color="#002A46"/>
<stop offset="1" stop-color="#478AB6"/>
</linearGradient>
</defs>
</svg>
